<svg width="658" height="589" viewBox="0 0 658 589" fill="none" xmlns="http://www.w3.org/2000/svg">
<path d="M484.308 185.916C513.758 185.916 537.633 162.012 537.633 132.525C537.633 103.038 513.758 79.1338 484.308 79.1338C454.858 79.1338 430.983 103.038 430.983 132.525C430.983 162.012 454.858 185.916 484.308 185.916Z" fill="#F2F2F2"/>
<path d="M320.525 28.7936C323.049 28.7936 325.096 26.7447 325.096 24.2172C325.096 21.6898 323.049 19.6408 320.525 19.6408C318 19.6408 315.954 21.6898 315.954 24.2172C315.954 26.7447 318 28.7936 320.525 28.7936Z" fill="#FF6584"/>
<path d="M469.072 335.411C471.597 335.411 473.643 333.362 473.643 330.835C473.643 328.307 471.597 326.258 469.072 326.258C466.548 326.258 464.502 328.307 464.502 330.835C464.502 333.362 466.548 335.411 469.072 335.411Z" fill="#FF6584"/>
<path d="M484.308 28.7936C486.832 28.7936 488.879 26.7447 488.879 24.2172C488.879 21.6898 486.832 19.6408 484.308 19.6408C481.784 19.6408 479.737 21.6898 479.737 24.2172C479.737 26.7447 481.784 28.7936 484.308 28.7936Z" fill="#F2F2F2"/>
<path d="M548.298 249.223C550.822 249.223 552.868 247.174 552.868 244.646C552.868 242.119 550.822 240.07 548.298 240.07C545.773 240.07 543.727 242.119 543.727 244.646C543.727 247.174 545.773 249.223 548.298 249.223Z" fill="#F2F2F2"/>
<path d="M366.232 152.356C368.756 152.356 370.802 150.307 370.802 147.78C370.802 145.252 368.756 143.203 366.232 143.203C363.707 143.203 361.661 145.252 361.661 147.78C361.661 150.307 363.707 152.356 366.232 152.356Z" fill="#F2F2F2"/>
<path d="M124.746 121.847C127.271 121.847 129.317 119.798 129.317 117.27C129.317 114.743 127.271 112.694 124.746 112.694C122.222 112.694 120.176 114.743 120.176 117.27C120.176 119.798 122.222 121.847 124.746 121.847Z" fill="#F2F2F2"/>
<path d="M210.828 462.787C296.655 462.787 366.232 393.124 366.232 307.19C366.232 221.256 296.655 151.593 210.828 151.593C125.001 151.593 55.4242 221.256 55.4242 307.19C55.4242 393.124 125.001 462.787 210.828 462.787Z" fill="#4286F4"/>
<path opacity="0.2" d="M203.972 266.766C216.594 266.766 226.825 256.521 226.825 243.884C226.825 231.246 216.594 221.002 203.972 221.002C191.35 221.002 181.118 231.246 181.118 243.884C181.118 256.521 191.35 266.766 203.972 266.766Z" fill="black"/>
<path opacity="0.2" d="M203.972 436.854C225.849 436.854 243.585 419.097 243.585 397.192C243.585 375.288 225.849 357.53 203.972 357.53C182.094 357.53 164.359 375.288 164.359 397.192C164.359 419.097 182.094 436.854 203.972 436.854Z" fill="black"/>
<path opacity="0.2" d="M88.9427 346.852C94.4121 346.852 98.8459 342.413 98.8459 336.937C98.8459 331.461 94.4121 327.021 88.9427 327.021C83.4734 327.021 79.0396 331.461 79.0396 336.937C79.0396 342.413 83.4734 346.852 88.9427 346.852Z" fill="black"/>
<path opacity="0.2" d="M479.669 110.256C482.577 110.256 484.934 107.896 484.934 104.985C484.934 102.074 482.577 99.7139 479.669 99.7139C476.762 99.7139 474.405 102.074 474.405 104.985C474.405 107.896 476.762 110.256 479.669 110.256Z" fill="black"/>
<path opacity="0.2" d="M256.467 214.75C259.374 214.75 261.731 212.39 261.731 209.479C261.731 206.568 259.374 204.208 256.467 204.208C253.559 204.208 251.202 206.568 251.202 209.479C251.202 212.39 253.559 214.75 256.467 214.75Z" fill="black"/>
<path opacity="0.2" d="M197.116 320.919C200.902 320.919 203.972 317.846 203.972 314.055C203.972 310.264 200.902 307.19 197.116 307.19C193.329 307.19 190.26 310.264 190.26 314.055C190.26 317.846 193.329 320.919 197.116 320.919Z" fill="black"/>
<path opacity="0.2" d="M466.855 152.37C469.762 152.37 472.119 150.01 472.119 147.099C472.119 144.187 469.762 141.828 466.855 141.828C463.948 141.828 461.591 144.187 461.591 147.099C461.591 150.01 463.948 152.37 466.855 152.37Z" fill="black"/>
<path opacity="0.2" d="M325.163 282.034C328.071 282.034 330.428 279.674 330.428 276.763C330.428 273.852 328.071 271.492 325.163 271.492C322.256 271.492 319.899 273.852 319.899 276.763C319.899 279.674 322.256 282.034 325.163 282.034Z" fill="black"/>
<path opacity="0.2" d="M514.031 149.741C518.231 149.741 521.635 146.332 521.635 142.127C521.635 137.922 518.231 134.513 514.031 134.513C509.832 134.513 506.427 137.922 506.427 142.127C506.427 146.332 509.832 149.741 514.031 149.741Z" fill="black"/>
<path opacity="0.2" d="M281.687 338.135C285.887 338.135 289.292 334.727 289.292 330.522C289.292 326.317 285.887 322.908 281.687 322.908C277.488 322.908 274.083 326.317 274.083 330.522C274.083 334.727 277.488 338.135 281.687 338.135Z" fill="black"/>
<path opacity="0.2" d="M114.843 253.799C120.313 253.799 124.747 249.36 124.747 243.884C124.747 238.407 120.313 233.968 114.843 233.968C109.374 233.968 104.94 238.407 104.94 243.884C104.94 249.36 109.374 253.799 114.843 253.799Z" fill="black"/>
<path d="M244.498 396.879C228.155 396.857 211.827 395.912 195.59 394.049C146.755 388.496 101.715 375.375 68.7681 357.103C35.4178 338.607 18.3524 316.949 20.7148 296.12C22.3515 281.689 36.2823 268.773 63.3029 256.634C63.6715 256.469 64.0903 256.458 64.4675 256.602C64.8447 256.746 65.1493 257.034 65.3145 257.403C65.4798 257.772 65.4921 258.191 65.3489 258.569C65.2056 258.947 64.9185 259.252 64.5504 259.418C38.5959 271.077 25.2476 283.196 23.7426 296.464C21.5279 315.988 38.0428 336.575 70.2448 354.434C102.85 372.517 147.487 385.509 195.934 391.018C244.381 396.527 290.791 393.887 326.615 383.585C361.997 373.411 382.702 357.056 384.916 337.533C386.415 324.325 379.149 310.321 363.904 297.033C363.599 296.768 363.412 296.392 363.384 295.988C363.356 295.584 363.49 295.186 363.755 294.881C364.021 294.576 364.396 294.388 364.799 294.36C365.203 294.333 365.6 294.466 365.905 294.732C381.94 308.708 389.561 323.628 387.944 337.877C385.581 358.706 364.1 375.98 327.457 386.517C303.598 393.378 275.122 396.879 244.498 396.879Z" fill="white"/>
<path d="M553.157 212.888C556.138 212.888 558.555 210.467 558.555 207.482C558.555 204.497 556.138 202.077 553.157 202.077C550.175 202.077 547.758 204.497 547.758 207.482C547.758 210.467 550.175 212.888 553.157 212.888Z" fill="#4286F4"/>
</svg>
