<svg width="248" height="479" viewBox="0 0 248 479" fill="none" xmlns="http://www.w3.org/2000/svg">
<path d="M123.947 479C55.4928 479 0 470.686 0 460.431C0 450.176 55.4928 441.863 123.947 441.863C192.4 441.863 247.893 450.176 247.893 460.431C247.893 470.686 192.4 479 123.947 479Z" fill="#E6E6E6"/>
<path d="M174.488 425.597L173.409 435.327L183.126 434.246V422.354L174.488 425.597Z" fill="#FFB8B8"/>
<path d="M72.9905 425.597L74.0706 435.327L64.3526 434.246V422.354L72.9905 425.597Z" fill="#FFB8B8"/>
<path d="M175.568 215.863L179.887 327.217C179.887 327.217 193.924 410.462 190.685 412.624C187.445 414.786 190.685 426.678 190.685 426.678L172.329 428.84C172.329 428.84 172.329 420.192 168.01 416.948C163.691 413.705 123.739 261.269 123.739 261.269L82.7085 408.299C82.7085 408.299 83.7883 416.948 80.549 416.948C77.3097 416.948 76.23 428.84 76.23 428.84H57.874V416.948C57.874 416.948 52.4752 415.867 55.7145 407.218C58.9538 398.569 70.8312 215.863 70.8312 215.863L175.568 215.863Z" fill="#2F2E41"/>
<path d="M180.967 425.597C180.967 425.597 186.365 422.354 188.525 424.516C190.685 426.678 207.961 448.3 207.961 448.3C207.961 448.3 231.715 463.436 210.12 467.76C188.525 472.085 172.329 451.544 171.249 449.381C170.169 447.219 172.329 429.922 173.408 432.084C174.488 434.246 177.727 433.165 178.807 432.084C179.887 431.003 180.967 425.597 180.967 425.597Z" fill="#2F2E41"/>
<path d="M66.512 425.597C66.512 425.597 61.1132 422.354 58.9537 424.516C56.7942 426.678 39.518 448.3 39.518 448.3C39.518 448.3 15.7632 463.436 37.3585 467.76C58.9537 472.085 75.1501 451.544 76.2299 449.381C77.3097 447.219 75.1501 429.922 74.0704 432.084C72.9906 434.246 69.7513 433.165 68.6716 432.084C67.5918 431.003 66.512 425.597 66.512 425.597Z" fill="#2F2E41"/>
<path d="M110.242 55.8596C98.0174 55.8596 88.1072 45.9371 88.1072 33.697C88.1072 21.4569 98.0174 11.5344 110.242 11.5344C122.467 11.5344 132.377 21.4569 132.377 33.697C132.377 45.9371 122.467 55.8596 110.242 55.8596Z" fill="#FFB8B8"/>
<path d="M124.819 46.1295L128.059 79.6439L102.144 85.0496L95.6653 45.0488L124.819 46.1295Z" fill="#FFB8B8"/>
<path d="M97.8251 72.0762C97.8251 72.0762 104.304 86.1306 128.058 70.9951L172.329 215.863C172.329 215.863 112.942 251.539 75.1501 224.512L88.1073 78.5628L97.8251 72.0762Z" fill="#4286F4"/>
<path d="M123.739 55.8596L144.255 52.6163L146.414 66.6706C146.414 66.6706 174.488 69.914 177.727 80.725L174.488 160.727C174.488 160.727 184.206 178.024 175.568 188.835C175.568 188.835 189.605 218.025 178.807 223.431C178.807 223.431 153.973 211.539 138.856 214.782C138.856 214.782 130.218 212.62 130.218 206.133C130.218 199.646 123.739 55.8596 123.739 55.8596Z" fill="#2F2E41"/>
<path d="M98.9049 58.0218L87.0275 61.2651L85.9477 76.4005C85.9477 76.4005 56.7943 94.7793 55.7145 105.59C54.6347 116.401 77.3097 168.294 77.3097 168.294C77.3097 168.294 68.6716 183.43 71.9109 193.16C71.9109 193.16 57.874 221.268 66.5121 228.836C66.5121 228.836 82.7085 233.161 84.868 226.674C87.0275 220.187 106.463 145.591 97.8251 109.915C97.8251 109.915 106.463 64.5084 98.9049 58.0218Z" fill="#2F2E41"/>
<path d="M86.4875 93.2298H86.8939V82.0824C86.8939 81.2352 87.0606 80.3962 87.3844 79.6134C87.7083 78.8307 88.1829 78.1194 88.7812 77.5203C89.3796 76.9212 90.09 76.446 90.8718 76.1217C91.6536 75.7975 92.4915 75.6306 93.3377 75.6306H116.926C117.772 75.6306 118.61 75.7975 119.391 76.1217C120.173 76.446 120.884 76.9212 121.482 77.5203C122.08 78.1194 122.555 78.8307 122.879 79.6134C123.203 80.3962 123.369 81.2352 123.369 82.0824V143.238C123.369 144.085 123.203 144.924 122.879 145.707C122.555 146.49 122.08 147.201 121.482 147.8C120.884 148.399 120.173 148.874 119.391 149.199C118.61 149.523 117.772 149.69 116.926 149.69H93.3377C92.4915 149.69 91.6536 149.523 90.8718 149.199C90.09 148.874 89.3796 148.399 88.7812 147.8C88.1829 147.201 87.7083 146.49 87.3844 145.707C87.0606 144.924 86.8939 144.085 86.8939 143.238V101.165H86.4875V93.2298Z" fill="white"/>
<path d="M76.23 136.942C76.23 136.942 84.8681 108.834 97.8252 117.482C110.782 126.131 89.1871 149.916 89.1871 149.916L76.23 136.942Z" fill="#FFB8B8"/>
<path d="M135.617 116.401C135.617 116.401 120.5 98.0227 112.942 106.672C105.383 115.32 125.899 134.78 125.899 134.78L135.617 116.401Z" fill="#FFB8B8"/>
<path d="M174.488 79.6439C174.488 79.6439 179.887 78.5628 183.126 88.2927C186.365 98.0227 198.243 134.78 198.243 141.267C198.243 147.753 193.924 173.7 170.169 169.376C146.414 165.051 118.34 134.78 118.34 134.78L133.457 112.077L165.85 131.537L174.488 79.6439Z" fill="#2F2E41"/>
<path d="M60.0333 101.266C60.0333 101.266 56.794 103.428 54.6345 113.158C52.475 122.888 38.4381 159.646 43.8369 168.294C49.2357 176.943 57.8738 196.403 76.2297 183.43L94.5857 149.916L76.2297 132.618L68.6714 138.024L60.0333 101.266Z" fill="#2F2E41"/>
<path d="M131.096 40.526C131.096 40.526 149.66 10.4017 129.887 8.83493C123.288 8.37283 116.845 6.615 110.924 3.66164C104.37 0.322187 96.1195 -2.21613 91.7291 2.92453C89.8131 5.27515 87.5794 7.34704 85.0923 9.08045C81.2356 11.6413 76.7732 15.7928 79.2442 20.2461L83.2952 27.5469L88.9665 42.1483C87.6458 35.8503 87.6126 30.5624 90.992 27.9524C90.992 27.9524 109.846 35.9861 119.348 21.4629C129.985 13.4722 133.369 38.6234 131.096 40.526Z" fill="#2F2E41"/>
<path d="M104.843 102.888C101.862 102.888 99.4446 100.467 99.4446 97.4821C99.4446 94.4967 101.862 92.0766 104.843 92.0766C107.825 92.0766 110.242 94.4967 110.242 97.4821C110.242 100.467 107.825 102.888 104.843 102.888Z" fill="#4286F4"/>
</svg>
